<?xml version="1.0" encoding="UTF-8" standalone="no"?>
<!DOCTYPE svg PUBLIC "-//W3C//DTD SVG 1.1//EN" "http://www.w3.org/Graphics/SVG/1.1/DTD/svg11.dtd"
[
<!ATTLIST g
  xmlns:vectornator CDATA #FIXED "http://vectornator.io"
  vectornator:layerName CDATA #IMPLIED >
<!ATTLIST g
  xmlns:vectornator CDATA #FIXED "http://vectornator.io"
  vectornator:mask CDATA #IMPLIED >
<!ATTLIST text
  xmlns:vectornator CDATA #FIXED "http://vectornator.io"
  vectornator:width CDATA #IMPLIED >
<!ATTLIST text
  xmlns:vectornator CDATA #FIXED "http://vectornator.io"
  vectornator:text CDATA #IMPLIED >

<!ATTLIST path
  xmlns:vectornator CDATA #FIXED "http://vectornator.io"
  vectornator:blendMode CDATA #IMPLIED >
<!ATTLIST path
  xmlns:vectornator CDATA #FIXED "http://vectornator.io"
  vectornator:shadowColor CDATA #IMPLIED >
<!ATTLIST path
  xmlns:vectornator CDATA #FIXED "http://vectornator.io"
  vectornator:shadowOpacity CDATA #IMPLIED >
<!ATTLIST path
  xmlns:vectornator CDATA #FIXED "http://vectornator.io"
  vectornator:shadowRadius CDATA #IMPLIED >
<!ATTLIST path
  xmlns:vectornator CDATA #FIXED "http://vectornator.io"
  vectornator:shadowOffset CDATA #IMPLIED >
<!ATTLIST path
  xmlns:vectornator CDATA #FIXED "http://vectornator.io"
  vectornator:shadowAngle CDATA #IMPLIED >

<!ATTLIST image
  xmlns:vectornator CDATA #FIXED "http://vectornator.io"
  vectornator:blendMode CDATA #IMPLIED >
<!ATTLIST image
  xmlns:vectornator CDATA #FIXED "http://vectornator.io"
  vectornator:shadowColor CDATA #IMPLIED >
<!ATTLIST image
  xmlns:vectornator CDATA #FIXED "http://vectornator.io"
  vectornator:shadowOpacity CDATA #IMPLIED >
<!ATTLIST image
  xmlns:vectornator CDATA #FIXED "http://vectornator.io"
  vectornator:shadowRadius CDATA #IMPLIED >
<!ATTLIST image
  xmlns:vectornator CDATA #FIXED "http://vectornator.io"
  vectornator:shadowOffset CDATA #IMPLIED >
<!ATTLIST image
  xmlns:vectornator CDATA #FIXED "http://vectornator.io"
  vectornator:shadowAngle CDATA #IMPLIED >

<!ATTLIST g
  xmlns:vectornator CDATA #FIXED "http://vectornator.io"
  vectornator:blendMode CDATA #IMPLIED >
<!ATTLIST g
  xmlns:vectornator CDATA #FIXED "http://vectornator.io"
  vectornator:shadowColor CDATA #IMPLIED >
<!ATTLIST g
  xmlns:vectornator CDATA #FIXED "http://vectornator.io"
  vectornator:shadowOpacity CDATA #IMPLIED >
<!ATTLIST g
  xmlns:vectornator CDATA #FIXED "http://vectornator.io"
  vectornator:shadowRadius CDATA #IMPLIED >
<!ATTLIST g
  xmlns:vectornator CDATA #FIXED "http://vectornator.io"
  vectornator:shadowOffset CDATA #IMPLIED >
<!ATTLIST g
  xmlns:vectornator CDATA #FIXED "http://vectornator.io"
  vectornator:shadowAngle CDATA #IMPLIED >

<!ENTITY % SVG.filter.extra.content  "| feDropShadow" >
<!ELEMENT feDropShadow EMPTY>
<!ATTLIST feDropShadow
  xmlns:svg CDATA #FIXED "http://www.w3.org/Graphics/SVG/1.1/DTD/svg11.dtd"
  dx CDATA #IMPLIED>
<!ATTLIST feDropShadow
  xmlns:svg CDATA #FIXED "http://www.w3.org/Graphics/SVG/1.1/DTD/svg11.dtd"
  dy CDATA #IMPLIED>
<!ATTLIST feDropShadow
  xmlns:svg CDATA #FIXED "http://www.w3.org/Graphics/SVG/1.1/DTD/svg11.dtd"
  stdDeviation CDATA #IMPLIED>
<!ATTLIST feDropShadow
  xmlns:svg CDATA #FIXED "http://www.w3.org/Graphics/SVG/1.1/DTD/svg11.dtd"
  flood-opacity CDATA #IMPLIED>
<!ATTLIST feDropShadow
  xmlns:svg CDATA #FIXED "http://www.w3.org/Graphics/SVG/1.1/DTD/svg11.dtd"
  in CDATA #IMPLIED>
<!ATTLIST feDropShadow
  xmlns:svg CDATA #FIXED "http://www.w3.org/Graphics/SVG/1.1/DTD/svg11.dtd"
  result CDATA #IMPLIED>
<!ATTLIST feDropShadow
  xmlns:svg CDATA #FIXED "http://www.w3.org/Graphics/SVG/1.1/DTD/svg11.dtd"
  flood-color CDATA #IMPLIED>
]
>
<!-- Created with Vectornator (http://vectornator.io/) -->
<svg height="100%" stroke-miterlimit="10" style="fill-rule:nonzero;clip-rule:evenodd;stroke-linecap:round;stroke-linejoin:round;" version="1.1" viewBox="0 0 214 212" width="100%" xml:space="preserve" xmlns="http://www.w3.org/2000/svg" xmlns:vectornator="http://vectornator.io" xmlns:xlink="http://www.w3.org/1999/xlink">
<defs>
<linearGradient gradientTransform="matrix(1 0 0 1 -2.0164 -6.67726)" gradientUnits="userSpaceOnUse" id="LinearGradient" x1="25.3765" x2="186" y1="101.326" y2="101.326">
<stop offset="0.5" stop-color="#ffffff"/>
<stop offset="1" stop-color="#0e00ff"/>
</linearGradient>
<linearGradient gradientTransform="matrix(1 0 0 1 0 0)" gradientUnits="userSpaceOnUse" id="LinearGradient_2" x1="30.9696" x2="51.0182" y1="36.0311" y2="36.0311">
<stop offset="1" stop-color="#ffffff"/>
<stop offset="1" stop-color="#0e00ff"/>
</linearGradient>
<linearGradient gradientTransform="matrix(1 0 0 1 0 0)" gradientUnits="userSpaceOnUse" id="LinearGradient_3" x1="161.055" x2="180.934" y1="36.1475" y2="36.1475">
<stop offset="0" stop-color="#000000"/>
<stop offset="0" stop-color="#0e00ff"/>
</linearGradient>
<linearGradient gradientTransform="matrix(1 0 0 1 0 0)" gradientUnits="userSpaceOnUse" id="LinearGradient_4" x1="30.8612" x2="51.1342" y1="166.281" y2="166.281">
<stop offset="1" stop-color="#ffffff"/>
<stop offset="1" stop-color="#0e00ff"/>
</linearGradient>
<linearGradient gradientTransform="matrix(1 0 0 1 0 0)" gradientUnits="userSpaceOnUse" id="LinearGradient_5" x1="160.983" x2="181.025" y1="166.243" y2="166.243">
<stop offset="0" stop-color="#000000"/>
<stop offset="0" stop-color="#0e00ff"/>
</linearGradient>
</defs>
<g id="Untitled" vectornator:layerName="Untitled">
<path d="M78.3867 24.7632C75.5867 25.7632 71.6867 27.8632 69.6867 29.2632C62.7867 34.5632 57.0867 45.2632 57.0867 52.9632L57.0867 56.6632L51.1867 57.3632C44.5867 58.1632 37.1867 61.5632 32.4867 66.1632C26.0867 72.1632 21.3867 84.4632 22.6867 91.4632L23.2867 94.7632L27.1867 90.4632C29.2867 88.1632 31.0867 85.4632 31.0867 84.5632C31.0867 81.9632 34.6867 75.5632 37.9867 72.2632C42.6867 67.5632 47.6867 65.6632 56.8867 65.1632L65.0867 64.6632L65.0867 57.2632C65.0867 53.0632 65.6867 48.3632 66.4867 46.4632C70.4867 36.9632 79.1867 30.9632 88.7867 30.9632C91.6867 30.9632 94.0867 31.2632 94.0867 31.5632C94.0867 31.8632 92.6867 34.0632 91.0867 36.5632C85.6867 44.2632 85.0867 47.4632 85.0867 66.9632L85.0867 84.7632L65.8867 85.1632C46.7867 85.4632 46.4867 85.4632 40.7867 88.3632C31.1867 93.2632 24.9867 101.663 22.9867 112.563C21.4867 120.363 23.1867 127.463 28.3867 135.263C33.6867 143.063 40.3867 147.363 50.1867 148.963L57.0867 150.163L57.0867 153.863C57.0867 163.663 64.1867 174.663 73.7867 179.663C79.8867 182.763 89.4867 184.763 92.6867 183.563C95.0867 182.663 86.9867 175.863 81.6867 174.263C75.9867 172.563 70.6867 167.863 67.6867 161.763C65.5867 157.463 65.0867 155.163 65.0867 148.763L65.0867 140.963L57.0867 140.963C52.5867 140.963 47.5867 140.363 45.7867 139.663C37.0867 135.963 31.0867 126.863 31.0867 117.463L31.0867 111.963L36.1867 115.463C43.5867 120.563 46.6867 121.163 66.8867 121.663L85.0867 122.163L85.0867 140.363C85.0867 157.563 85.1867 158.763 87.5867 163.863C91.5867 172.363 95.4867 176.563 102.887 180.163C108.687 183.063 110.487 183.463 117.587 183.463C124.487 183.463 126.387 183.063 131.487 180.463C141.387 175.463 149.087 164.263 149.087 154.863C149.087 150.463 149.287 150.163 152.187 149.563C153.887 149.263 156.287 148.963 157.587 148.963C161.587 148.963 171.887 142.963 175.587 138.563C180.987 131.963 183.087 126.463 183.087 118.763L183.087 111.963L179.087 116.363C176.887 118.763 175.087 121.463 175.087 122.363C175.087 125.363 171.287 131.463 167.287 135.163C162.487 139.563 158.687 140.763 149.087 141.263L141.587 141.563L141.087 150.563C140.587 159.963 139.587 162.463 134.187 168.263C129.487 173.363 119.887 176.763 114.387 175.363C112.187 174.763 112.187 174.763 115.187 170.363C120.487 162.663 121.087 159.463 121.087 139.863L121.087 121.963L135.387 121.963C158.787 121.963 166.287 119.963 174.687 111.363C180.387 105.463 183.087 98.0632 183.087 88.6632C183.087 72.5632 172.487 60.5632 155.587 57.6632L149.287 56.5632L148.887 51.4632C147.587 36.3632 135.087 24.5632 118.987 23.2632L111.587 22.6632L115.487 26.7632C117.687 29.0632 120.787 31.1632 122.487 31.5632C129.887 33.0632 137.087 39.5632 139.987 47.2632C140.587 48.8632 141.087 53.4632 141.087 57.5632L141.087 64.9632L147.387 64.9632C165.587 64.9632 176.387 75.5632 175.287 92.2632L175.087 95.0632L171.787 92.5632C163.787 86.4632 160.087 85.5632 139.887 85.1632L121.187 84.7632L120.887 65.5632C120.587 47.6632 120.387 46.1632 118.187 41.4632C114.987 35.1632 108.887 28.9632 102.687 25.9632C95.9867 22.7632 85.4867 22.2632 78.3867 24.7632ZM107.684 30.0227C113.384 36.2227 113.984 38.9227 113.984 62.5227L113.984 84.2227L136.284 84.5227C160.784 84.8227 162.784 85.3227 169.184 91.7227L172.284 94.7227L168.184 98.3227C162.084 103.723 158.884 104.323 135.084 104.323L113.984 104.323L113.984 126.123C113.984 147.423 113.884 148.023 111.484 152.923C110.084 155.723 107.884 159.023 106.484 160.323L103.984 162.623L101.484 160.323C100.084 159.023 97.8836 155.723 96.4836 152.923C94.0836 148.023 93.9836 147.423 93.9836 126.123L93.9836 104.323L72.2836 104.323C51.4836 104.323 50.2836 104.223 45.4836 101.923C42.7836 100.623 39.4836 98.4227 38.1836 97.1227L35.8836 94.6227L38.8836 91.6227C45.1836 85.3227 47.2836 84.8227 71.7836 84.5227L93.9836 84.2227L93.9836 62.5227C93.9836 43.6227 94.2836 40.3227 95.8836 36.8227C97.8836 32.4227 102.284 27.3227 103.984 27.3227C104.584 27.3227 106.284 28.5227 107.684 30.0227Z" fill="url(#LinearGradient)" fill-rule="evenodd" opacity="1" stroke="none"/>
<path d="M36.5 27.2C27.1 32.3 30.4 46 41 46C51.7 46 54.9 32 45.3 27.1C42.6 25.7 39.1 25.7 36.5 27.2Z" fill="url(#LinearGradient_2)" fill-rule="evenodd" opacity="1" stroke="none"/>
<path d="M166.5 27.4C160.5 30 159.2 38.3 163.9 43.1C168 47.2 174 47.2 178.1 43.1C183 38.1 181.3 29.3 174.9 27.1C170.9 25.7 170.2 25.8 166.5 27.4Z" fill="url(#LinearGradient_3)" fill-rule="evenodd" opacity="1" stroke="none"/>
<path d="M35.8 157.6C30.1 160.6 29.2 168 33.8 173.1C37.9 177.6 44.1 177.6 48.2 173.1C52.9 167.9 51.8 160.5 46 157.5C42.4 155.6 39.3 155.6 35.8 157.6Z" fill="url(#LinearGradient_4)" fill-rule="evenodd" opacity="1" stroke="none"/>
<path d="M165.8 157.6C157.4 162.1 160.7 176 170.2 176.3C174.8 176.4 178.4 174.5 179.9 171.3C184.3 161.7 175 152.6 165.8 157.6Z" fill="url(#LinearGradient_5)" fill-rule="evenodd" opacity="1" stroke="none"/>
</g>
</svg>
