<?xml version="1.0" encoding="UTF-8" standalone="no"?>
<!DOCTYPE svg PUBLIC "-//W3C//DTD SVG 1.1//EN" "http://www.w3.org/Graphics/SVG/1.1/DTD/svg11.dtd"
[
<!ATTLIST g
  xmlns:vectornator CDATA #FIXED "http://vectornator.io"
  vectornator:layerName CDATA #IMPLIED >
<!ATTLIST g
  xmlns:vectornator CDATA #FIXED "http://vectornator.io"
  vectornator:mask CDATA #IMPLIED >
<!ATTLIST text
  xmlns:vectornator CDATA #FIXED "http://vectornator.io"
  vectornator:width CDATA #IMPLIED >
<!ATTLIST text
  xmlns:vectornator CDATA #FIXED "http://vectornator.io"
  vectornator:text CDATA #IMPLIED >

<!ATTLIST path
  xmlns:vectornator CDATA #FIXED "http://vectornator.io"
  vectornator:blendMode CDATA #IMPLIED >
<!ATTLIST path
  xmlns:vectornator CDATA #FIXED "http://vectornator.io"
  vectornator:shadowColor CDATA #IMPLIED >
<!ATTLIST path
  xmlns:vectornator CDATA #FIXED "http://vectornator.io"
  vectornator:shadowOpacity CDATA #IMPLIED >
<!ATTLIST path
  xmlns:vectornator CDATA #FIXED "http://vectornator.io"
  vectornator:shadowRadius CDATA #IMPLIED >
<!ATTLIST path
  xmlns:vectornator CDATA #FIXED "http://vectornator.io"
  vectornator:shadowOffset CDATA #IMPLIED >
<!ATTLIST path
  xmlns:vectornator CDATA #FIXED "http://vectornator.io"
  vectornator:shadowAngle CDATA #IMPLIED >

<!ATTLIST image
  xmlns:vectornator CDATA #FIXED "http://vectornator.io"
  vectornator:blendMode CDATA #IMPLIED >
<!ATTLIST image
  xmlns:vectornator CDATA #FIXED "http://vectornator.io"
  vectornator:shadowColor CDATA #IMPLIED >
<!ATTLIST image
  xmlns:vectornator CDATA #FIXED "http://vectornator.io"
  vectornator:shadowOpacity CDATA #IMPLIED >
<!ATTLIST image
  xmlns:vectornator CDATA #FIXED "http://vectornator.io"
  vectornator:shadowRadius CDATA #IMPLIED >
<!ATTLIST image
  xmlns:vectornator CDATA #FIXED "http://vectornator.io"
  vectornator:shadowOffset CDATA #IMPLIED >
<!ATTLIST image
  xmlns:vectornator CDATA #FIXED "http://vectornator.io"
  vectornator:shadowAngle CDATA #IMPLIED >

<!ATTLIST g
  xmlns:vectornator CDATA #FIXED "http://vectornator.io"
  vectornator:blendMode CDATA #IMPLIED >
<!ATTLIST g
  xmlns:vectornator CDATA #FIXED "http://vectornator.io"
  vectornator:shadowColor CDATA #IMPLIED >
<!ATTLIST g
  xmlns:vectornator CDATA #FIXED "http://vectornator.io"
  vectornator:shadowOpacity CDATA #IMPLIED >
<!ATTLIST g
  xmlns:vectornator CDATA #FIXED "http://vectornator.io"
  vectornator:shadowRadius CDATA #IMPLIED >
<!ATTLIST g
  xmlns:vectornator CDATA #FIXED "http://vectornator.io"
  vectornator:shadowOffset CDATA #IMPLIED >
<!ATTLIST g
  xmlns:vectornator CDATA #FIXED "http://vectornator.io"
  vectornator:shadowAngle CDATA #IMPLIED >

<!ENTITY % SVG.filter.extra.content  "| feDropShadow" >
<!ELEMENT feDropShadow EMPTY>
<!ATTLIST feDropShadow
  xmlns:svg CDATA #FIXED "http://www.w3.org/Graphics/SVG/1.1/DTD/svg11.dtd"
  dx CDATA #IMPLIED>
<!ATTLIST feDropShadow
  xmlns:svg CDATA #FIXED "http://www.w3.org/Graphics/SVG/1.1/DTD/svg11.dtd"
  dy CDATA #IMPLIED>
<!ATTLIST feDropShadow
  xmlns:svg CDATA #FIXED "http://www.w3.org/Graphics/SVG/1.1/DTD/svg11.dtd"
  stdDeviation CDATA #IMPLIED>
<!ATTLIST feDropShadow
  xmlns:svg CDATA #FIXED "http://www.w3.org/Graphics/SVG/1.1/DTD/svg11.dtd"
  flood-opacity CDATA #IMPLIED>
<!ATTLIST feDropShadow
  xmlns:svg CDATA #FIXED "http://www.w3.org/Graphics/SVG/1.1/DTD/svg11.dtd"
  in CDATA #IMPLIED>
<!ATTLIST feDropShadow
  xmlns:svg CDATA #FIXED "http://www.w3.org/Graphics/SVG/1.1/DTD/svg11.dtd"
  result CDATA #IMPLIED>
<!ATTLIST feDropShadow
  xmlns:svg CDATA #FIXED "http://www.w3.org/Graphics/SVG/1.1/DTD/svg11.dtd"
  flood-color CDATA #IMPLIED>
]
>
<!-- Created with Vectornator (http://vectornator.io/) -->
<svg height="100%" stroke-miterlimit="10" style="fill-rule:nonzero;clip-rule:evenodd;stroke-linecap:round;stroke-linejoin:round;" version="1.1" viewBox="0 0 214 212" width="100%" xml:space="preserve" xmlns="http://www.w3.org/2000/svg" xmlns:vectornator="http://vectornator.io" xmlns:xlink="http://www.w3.org/1999/xlink">
<defs>
<linearGradient gradientTransform="matrix(1 0 0 1 0 0)" gradientUnits="userSpaceOnUse" id="LinearGradient" x1="25.3765" x2="186" y1="101.326" y2="101.326">
<stop offset="0.5" stop-color="#000000"/>
<stop offset="0.907025" stop-color="#0e00ff"/>
</linearGradient>
<linearGradient gradientTransform="matrix(1 0 0 1 0 0)" gradientUnits="userSpaceOnUse" id="LinearGradient_2" x1="30.9696" x2="51.0182" y1="36.0311" y2="36.0311">
<stop offset="1" stop-color="#000000"/>
<stop offset="1" stop-color="#0e00ff"/>
</linearGradient>
<linearGradient gradientTransform="matrix(1 0 0 1 0 0)" gradientUnits="userSpaceOnUse" id="LinearGradient_3" x1="161.055" x2="180.934" y1="36.1475" y2="36.1475">
<stop offset="0" stop-color="#000000"/>
<stop offset="0" stop-color="#0e00ff"/>
</linearGradient>
<linearGradient gradientTransform="matrix(1 0 0 1 0 0)" gradientUnits="userSpaceOnUse" id="LinearGradient_4" x1="30.8612" x2="51.1342" y1="166.281" y2="166.281">
<stop offset="1" stop-color="#000000"/>
<stop offset="1" stop-color="#0e00ff"/>
</linearGradient>
<linearGradient gradientTransform="matrix(1 0 0 1 0 0)" gradientUnits="userSpaceOnUse" id="LinearGradient_5" x1="160.983" x2="181.025" y1="166.243" y2="166.243">
<stop offset="0" stop-color="#000000"/>
<stop offset="0" stop-color="#0e00ff"/>
</linearGradient>
</defs>
<g id="Untitled" vectornator:layerName="Untitled">
<path d="M81.3 22.8C78.5 23.8 74.6 25.9 72.6 27.3C65.7 32.6 60 43.3 60 51L60 54.7L54.1 55.4C47.5 56.2 40.1 59.6 35.4 64.2C29 70.2 24.3 82.5 25.6 89.5L26.2 92.8L30.1 88.5C32.2 86.2 34 83.5 34 82.6C34 80 37.6 73.6 40.9 70.3C45.6 65.6 50.6 63.7 59.8 63.2L68 62.7L68 55.3C68 51.1 68.6 46.4 69.4 44.5C73.4 35 82.1 29 91.7 29C94.6 29 97 29.3 97 29.6C97 29.9 95.6 32.1 94 34.6C88.6 42.3 88 45.5 88 65L88 82.8L68.8 83.2C49.7 83.5 49.4 83.5 43.7 86.4C34.1 91.3 27.9 99.7 25.9 110.6C24.4 118.4 26.1 125.5 31.3 133.3C36.6 141.1 43.3 145.4 53.1 147L60 148.2L60 151.9C60 161.7 67.1 172.7 76.7 177.7C82.8 180.8 92.4 182.8 95.6 181.6C98 180.7 89.9 173.9 84.6 172.3C78.9 170.6 73.6 165.9 70.6 159.8C68.5 155.5 68 153.2 68 146.8L68 139L60 139C55.5 139 50.5 138.4 48.7 137.7C40 134 34 124.9 34 115.5L34 110L39.1 113.5C46.5 118.6 49.6 119.2 69.8 119.7L88 120.2L88 138.4C88 155.6 88.1 156.8 90.5 161.9C94.5 170.4 98.4 174.6 105.8 178.2C111.6 181.1 113.4 181.5 120.5 181.5C127.4 181.5 129.3 181.1 134.4 178.5C144.3 173.5 152 162.3 152 152.9C152 148.5 152.2 148.2 155.1 147.6C156.8 147.3 159.2 147 160.5 147C164.5 147 174.8 141 178.5 136.6C183.9 130 186 124.5 186 116.8L186 110L182 114.4C179.8 116.8 178 119.5 178 120.4C178 123.4 174.2 129.5 170.2 133.2C165.4 137.6 161.6 138.8 152 139.3L144.5 139.6L144 148.6C143.5 158 142.5 160.5 137.1 166.3C132.4 171.4 122.8 174.8 117.3 173.4C115.1 172.8 115.1 172.8 118.1 168.4C123.4 160.7 124 157.5 124 137.9L124 120L138.3 120C161.7 120 169.2 118 177.6 109.4C183.3 103.5 186 96.1 186 86.7C186 70.6 175.4 58.6 158.5 55.7L152.2 54.6L151.8 49.5C150.5 34.4 138 22.6 121.9 21.3L114.5 20.7L118.4 24.8C120.6 27.1 123.7 29.2 125.4 29.6C132.8 31.1 140 37.6 142.9 45.3C143.5 46.9 144 51.5 144 55.6L144 63L150.3 63C168.5 63 179.3 73.6 178.2 90.3L178 93.1L174.7 90.6C166.7 84.5 163 83.6 142.8 83.2L124.1 82.8L123.8 63.6C123.5 45.7 123.3 44.2 121.1 39.5C117.9 33.2 111.8 27 105.6 24C98.9 20.8 88.4 20.3 81.3 22.8ZM109.7 36.7C115.4 42.9 116 45.6 116 69.2L116 90.9L138.3 91.2C162.8 91.5 164.8 92 171.2 98.4L174.3 101.4L170.2 105C164.1 110.4 160.9 111 137.1 111L116 111L116 132.8C116 154.1 115.9 154.7 113.5 159.6C112.1 162.4 109.9 165.7 108.5 167L106 169.3L103.5 167C102.1 165.7 99.9 162.4 98.5 159.6C96.1 154.7 96 154.1 96 132.8L96 111L74.3 111C53.5 111 52.3 110.9 47.5 108.6C44.8 107.3 41.5 105.1 40.2 103.8L37.9 101.3L40.9 98.3C47.2 92 49.3 91.5 73.8 91.2L96 90.9L96 69.2C96 50.3 96.3 47 97.9 43.5C99.9 39.1 104.3 34 106 34C106.6 34 108.3 35.2 109.7 36.7Z" fill="url(#LinearGradient)" fill-rule="evenodd" opacity="1" stroke="none"/>
<path d="M36.5 27.2C27.1 32.3 30.4 46 41 46C51.7 46 54.9 32 45.3 27.1C42.6 25.7 39.1 25.7 36.5 27.2Z" fill="url(#LinearGradient_2)" fill-rule="evenodd" opacity="1" stroke="none"/>
<path d="M166.5 27.4C160.5 30 159.2 38.3 163.9 43.1C168 47.2 174 47.2 178.1 43.1C183 38.1 181.3 29.3 174.9 27.1C170.9 25.7 170.2 25.8 166.5 27.4Z" fill="url(#LinearGradient_3)" fill-rule="evenodd" opacity="1" stroke="none"/>
<path d="M35.8 157.6C30.1 160.6 29.2 168 33.8 173.1C37.9 177.6 44.1 177.6 48.2 173.1C52.9 167.9 51.8 160.5 46 157.5C42.4 155.6 39.3 155.6 35.8 157.6Z" fill="url(#LinearGradient_4)" fill-rule="evenodd" opacity="1" stroke="none"/>
<path d="M165.8 157.6C157.4 162.1 160.7 176 170.2 176.3C174.8 176.4 178.4 174.5 179.9 171.3C184.3 161.7 175 152.6 165.8 157.6Z" fill="url(#LinearGradient_5)" fill-rule="evenodd" opacity="1" stroke="none"/>
</g>
</svg>
